<?xml version="1.0" standalone="no"?>
<!DOCTYPE svg PUBLIC "-//W3C//DTD SVG 20010904//EN"
 "http://www.w3.org/TR/2001/REC-SVG-20010904/DTD/svg10.dtd">
<svg version="1.0" xmlns="http://www.w3.org/2000/svg"
 width="50" height="50" viewBox="0 0 131.000000 131.000000"
 preserveAspectRatio="xMidYMid meet">
<metadata>
Created by potrace 1.10, written by Peter Selinger 2001-2011
</metadata>
<g transform="translate(0.000000,131.000000) scale(0.050000,-0.050000)"
fill="#000000" stroke="none">
<path d="M810 1899 c-943 -126 -824 -667 160 -728 185 -12 131 12 -110 48
-703 106 -525 505 248 555 l198 12 -14 -108 c-14 -100 -60 -225 -110 -298 -15
-22 -78 -33 -246 -41 l-226 -12 222 -3 c279 -5 323 -45 359 -331 l14 -117 -57
11 c-32 6 -103 16 -158 23 -208 26 -422 113 -478 194 -39 55 -59 38 -34 -29
142 -373 1440 -442 1803 -96 238 226 -126 481 -731 511 l-180 9 180 -30 c794
-130 699 -519 -142 -581 l-194 -14 13 96 c42 309 70 337 346 351 l217 12 -202
3 c-180 4 -205 9 -244 49 -88 95 -164 395 -99 395 208 0 572 -121 650 -215
l45 -55 0 51 c0 225 -680 412 -1230 338z"/>
</g>
</svg>
